<svg width="20" height="20" viewBox="0 0 20 20" fill="none" xmlns="http://www.w3.org/2000/svg">
    <path d="M2.94303 2.31986C3.63947 1.62342 4.46622 1.07096 5.37617 0.694054C6.28611 0.317144 7.26142 0.123169 8.24634 0.123169C9.23125 0.123169 10.2065 0.317144 11.1165 0.694054C12.0264 1.07096 12.8532 1.62342 13.5496 2.31986C14.7226 3.49593 15.472 5.02812 15.6802 6.67604C15.8884 8.32396 15.5437 9.99439 14.7001 11.4252L19.8252 16.5504C19.441 17.81 18.7087 18.8078 17.1735 19.202L12.0512 14.0797C10.6197 14.9236 8.94855 15.2683 7.30001 15.0596C5.65147 14.8508 4.11896 14.1005 2.94303 12.9265C2.24659 12.23 1.69413 11.4032 1.31722 10.4933C0.940313 9.58334 0.746338 8.60808 0.746338 7.62317C0.746338 6.63826 0.940313 5.663 1.31722 4.75306C1.69413 3.84311 2.24659 3.0163 2.94303 2.31986V2.31986ZM4.71082 4.08759C4.24652 4.55188 3.87822 5.10313 3.62695 5.70976C3.37567 6.31639 3.24632 6.96656 3.24632 7.62317C3.24632 8.27978 3.37567 8.92995 3.62695 9.53658C3.87822 10.1432 4.24652 10.6944 4.71082 11.1587C5.6485 12.0964 6.92026 12.6231 8.24634 12.6231C9.57241 12.6231 10.8442 12.0964 11.7819 11.1587C12.2462 10.6944 12.6145 10.1432 12.8657 9.53658C13.117 8.92995 13.2464 8.27978 13.2464 7.62317C13.2464 6.96656 13.117 6.31639 12.8657 5.70976C12.6145 5.10313 12.2462 4.55188 11.7819 4.08759C10.8442 3.14992 9.57241 2.62315 8.24634 2.62315C6.92026 2.62315 5.6485 3.14992 4.71082 4.08759V4.08759Z" fill="#E15369"/>
</svg>
